<svg width="24" height="24" viewBox="0 0 24 24" fill="none" xmlns="http://www.w3.org/2000/svg">
<path d="M14.25 18H3L2.99775 6.6795L11.5732 12.6165C11.6986 12.7033 11.8475 12.7497 12 12.7497C12.1525 12.7497 12.3014 12.7033 12.4268 12.6165L21 6.6825V13.5H22.5V6C22.4994 5.60236 22.3412 5.22117 22.06 4.94C21.7788 4.65882 21.3976 4.5006 21 4.5H3C2.60218 4.5 2.22064 4.65804 1.93934 4.93934C1.65804 5.22064 1.5 5.60218 1.5 6V18C1.5006 18.3976 1.65882 18.7788 1.94 19.06C2.22117 19.3412 2.60236 19.4994 3 19.5H14.25V18ZM19.3493 6L12 11.088L4.65075 6H19.3493Z" fill="#8763E8"/>
<path d="M19.5 21C21.1569 21 22.5 19.6569 22.5 18C22.5 16.3431 21.1569 15 19.5 15C17.8431 15 16.5 16.3431 16.5 18C16.5 19.6569 17.8431 21 19.5 21Z" fill="#8763E8"/>
</svg>
