<svg width="20" height="20" viewBox="0 0 20 20" fill="none" xmlns="http://www.w3.org/2000/svg">
<path d="M9.85502 1.64246C5.32664 1.64246 1.64252 5.32658 1.64252 9.85496V13.2574C1.64252 14.0984 2.37918 14.7825 3.28502 14.7825H4.10627C4.32408 14.7825 4.53296 14.6959 4.68698 14.5419C4.84099 14.3879 4.92752 14.179 4.92752 13.9612V9.73752C4.92752 9.51971 4.84099 9.31082 4.68698 9.15681C4.53296 9.00279 4.32408 8.91627 4.10627 8.91627H3.36057C3.81719 5.73803 6.55195 3.28496 9.85502 3.28496C13.1581 3.28496 15.8928 5.73803 16.3495 8.91627H15.6038C15.386 8.91627 15.1771 9.00279 15.0231 9.15681C14.869 9.31082 14.7825 9.51971 14.7825 9.73752V14.7825C14.7825 15.6883 14.0459 16.425 13.14 16.425H11.4975V15.6037H8.21252V18.0675H13.14C14.9517 18.0675 16.425 16.5941 16.425 14.7825C17.3309 14.7825 18.0675 14.0984 18.0675 13.2574V9.85496C18.0675 5.32658 14.3834 1.64246 9.85502 1.64246Z" fill="#8763E8"/>
</svg>
