<svg width="142" height="41" viewBox="0 0 142 41" fill="none" xmlns="http://www.w3.org/2000/svg">
<g clip-path="url(#clip0_44_725)">
<path d="M2.3652 39.8845L9.11804 39.9256C11.1747 39.9381 12.2869 37.4387 10.8565 35.8985L4.14818 28.548C2.68396 26.938 0.0724491 27.9663 0.0591032 30.1591L0.0146169 37.4685C0.00656702 38.7911 1.06263 39.8766 2.3652 39.8845Z" fill="white"/>
<path d="M0.21057 5.27254L0.166084 12.5819C0.15295 14.7399 2.75154 15.8348 4.23525 14.2426L11.0326 6.97437C12.4473 5.45144 11.3999 2.9389 9.34322 2.92638L2.59039 2.88528C1.28781 2.87736 0.21862 3.94989 0.21057 5.27254Z" fill="white"/>
<path d="M16.6105 19.8176L28.5488 7.08103C29.9635 5.55809 28.9161 3.04556 26.8594 3.03304L20.0381 2.99152C19.3868 2.98756 18.7681 3.26226 18.3195 3.74684L3.31054 19.7367C2.44786 20.6712 2.43918 22.0983 3.29041 23.0433L18.1036 39.2147C18.5463 39.7047 19.1616 39.9869 19.8129 39.9908L26.6343 40.0324C28.691 40.0449 29.8031 37.5455 28.3727 36.0052L16.5904 23.1243C15.7392 22.1793 15.7479 20.7522 16.6105 19.8176Z" fill="white"/>
</g>
<path d="M48.3265 27V6.63636H52.6319V15.6151H52.9004L60.2285 6.63636H65.389L57.8322 15.7543L65.4785 27H60.3279L54.7498 18.6278L52.6319 21.2131V27H48.3265ZM68.5087 27V11.7273H72.7445V27H68.5087ZM70.6365 9.75852C70.0068 9.75852 69.4666 9.54972 69.0158 9.1321C68.5717 8.70786 68.3496 8.20076 68.3496 7.61079C68.3496 7.02746 68.5717 6.52699 69.0158 6.10938C69.4666 5.68513 70.0068 5.47301 70.6365 5.47301C71.2663 5.47301 71.8032 5.68513 72.2473 6.10938C72.6981 6.52699 72.9235 7.02746 72.9235 7.61079C72.9235 8.20076 72.6981 8.70786 72.2473 9.1321C71.8032 9.54972 71.2663 9.75852 70.6365 9.75852ZM88.845 16.0824L84.9672 16.321C84.9009 15.9896 84.7583 15.6913 84.5396 15.4261C84.3208 15.1544 84.0325 14.9389 83.6745 14.7798C83.3232 14.6141 82.9023 14.5312 82.4118 14.5312C81.7555 14.5312 81.202 14.6705 80.7512 14.9489C80.3005 15.2206 80.0751 15.5852 80.0751 16.0426C80.0751 16.4072 80.2209 16.7154 80.5126 16.9673C80.8043 17.2192 81.3047 17.4214 82.014 17.5739L84.7782 18.1307C86.2631 18.4356 87.3701 18.9261 88.0993 19.6023C88.8284 20.2784 89.193 21.1667 89.193 22.267C89.193 23.268 88.898 24.1463 88.3081 24.902C87.7247 25.6577 86.9226 26.2476 85.9018 26.6719C84.8876 27.0895 83.7176 27.2983 82.3919 27.2983C80.3701 27.2983 78.7593 26.8774 77.5595 26.0355C76.3663 25.187 75.667 24.0336 75.4615 22.5753L79.6277 22.3565C79.7536 22.973 80.0585 23.4437 80.5424 23.7685C81.0263 24.0866 81.6461 24.2457 82.4018 24.2457C83.1442 24.2457 83.7408 24.1032 84.1916 23.8182C84.649 23.5265 84.881 23.152 84.8876 22.6946C84.881 22.3101 84.7186 21.9953 84.4004 21.75C84.0822 21.4981 83.5917 21.3059 82.9288 21.1733L80.2839 20.6463C78.7924 20.348 77.6821 19.831 76.9529 19.0952C76.2304 18.3594 75.8691 17.4214 75.8691 16.2812C75.8691 15.3002 76.1343 14.455 76.6646 13.7457C77.2015 13.0365 77.9539 12.4896 78.9217 12.1051C79.8961 11.7206 81.0363 11.5284 82.3422 11.5284C84.2711 11.5284 85.7891 11.9361 86.8961 12.7514C88.0098 13.5668 88.6594 14.6771 88.845 16.0824ZM91.9398 27V6.63636H96.2452V15.6151H96.5137L103.842 6.63636H109.002L101.445 15.7543L109.092 27H103.941L98.3631 18.6278L96.2452 21.2131V27H91.9398ZM115.52 27.2884C114.546 27.2884 113.677 27.1193 112.915 26.7812C112.153 26.4366 111.549 25.9295 111.105 25.2599C110.668 24.5838 110.449 23.742 110.449 22.7344C110.449 21.8859 110.605 21.1733 110.916 20.5966C111.228 20.0199 111.652 19.5559 112.189 19.2045C112.726 18.8532 113.336 18.5881 114.019 18.4091C114.708 18.2301 115.431 18.1042 116.186 18.0312C117.075 17.9384 117.79 17.8523 118.334 17.7727C118.878 17.6866 119.272 17.5606 119.517 17.3949C119.762 17.2292 119.885 16.9839 119.885 16.6591V16.5994C119.885 15.9697 119.686 15.4825 119.289 15.1378C118.897 14.7931 118.341 14.6207 117.618 14.6207C116.856 14.6207 116.249 14.7898 115.798 15.1278C115.348 15.4593 115.049 15.8769 114.904 16.3807L110.986 16.0625C111.185 15.1345 111.576 14.3324 112.159 13.6562C112.743 12.9735 113.495 12.4498 114.416 12.0852C115.344 11.714 116.418 11.5284 117.638 11.5284C118.486 11.5284 119.298 11.6278 120.074 11.8267C120.856 12.0256 121.549 12.3338 122.152 12.7514C122.762 13.169 123.243 13.706 123.594 14.3622C123.945 15.0118 124.121 15.7907 124.121 16.6989V27H120.104V24.8821H119.985C119.739 25.3594 119.411 25.7803 119 26.1449C118.589 26.5028 118.095 26.7846 117.519 26.9901C116.942 27.1889 116.276 27.2884 115.52 27.2884ZM116.733 24.3651C117.356 24.3651 117.906 24.2424 118.384 23.9972C118.861 23.7453 119.235 23.4072 119.507 22.983C119.779 22.5587 119.915 22.0781 119.915 21.5412V19.9205C119.782 20.0066 119.6 20.0862 119.368 20.1591C119.143 20.2254 118.887 20.2884 118.602 20.348C118.317 20.401 118.032 20.4508 117.747 20.4972C117.462 20.5369 117.204 20.5734 116.972 20.6065C116.475 20.6795 116.04 20.7955 115.669 20.9545C115.298 21.1136 115.01 21.3291 114.804 21.6009C114.599 21.866 114.496 22.1974 114.496 22.5952C114.496 23.1719 114.705 23.6127 115.122 23.9176C115.547 24.2159 116.084 24.3651 116.733 24.3651ZM140.115 16.0824L136.237 16.321C136.17 15.9896 136.028 15.6913 135.809 15.4261C135.59 15.1544 135.302 14.9389 134.944 14.7798C134.593 14.6141 134.172 14.5312 133.681 14.5312C133.025 14.5312 132.472 14.6705 132.021 14.9489C131.57 15.2206 131.345 15.5852 131.345 16.0426C131.345 16.4072 131.49 16.7154 131.782 16.9673C132.074 17.2192 132.574 17.4214 133.284 17.5739L136.048 18.1307C137.533 18.4356 138.64 18.9261 139.369 19.6023C140.098 20.2784 140.463 21.1667 140.463 22.267C140.463 23.268 140.168 24.1463 139.578 24.902C138.994 25.6577 138.192 26.2476 137.171 26.6719C136.157 27.0895 134.987 27.2983 133.661 27.2983C131.64 27.2983 130.029 26.8774 128.829 26.0355C127.636 25.187 126.936 24.0336 126.731 22.5753L130.897 22.3565C131.023 22.973 131.328 23.4437 131.812 23.7685C132.296 24.0866 132.916 24.2457 133.671 24.2457C134.414 24.2457 135.01 24.1032 135.461 23.8182C135.919 23.5265 136.151 23.152 136.157 22.6946C136.151 22.3101 135.988 21.9953 135.67 21.75C135.352 21.4981 134.861 21.3059 134.198 21.1733L131.553 20.6463C130.062 20.348 128.952 19.831 128.222 19.0952C127.5 18.3594 127.139 17.4214 127.139 16.2812C127.139 15.3002 127.404 14.455 127.934 13.7457C128.471 13.0365 129.223 12.4896 130.191 12.1051C131.166 11.7206 132.306 11.5284 133.612 11.5284C135.541 11.5284 137.059 11.9361 138.166 12.7514C139.279 13.5668 139.929 14.6771 140.115 16.0824Z" fill="white"/>
<defs>
<clipPath id="clip0_44_725">
<rect width="37" height="29" fill="white" transform="translate(0 39.8701) rotate(-89.6513)"/>
</clipPath>
</defs>
</svg>
