<svg width="191" height="40" viewBox="0 0 191 40" fill="none" xmlns="http://www.w3.org/2000/svg">
<g clip-path="url(#clip0_44_32)">
<path d="M28.8086 38.8848L35.5615 38.9259C37.6182 38.9385 38.7303 36.4391 37.2999 34.8988L30.5916 27.5484C29.1274 25.9383 26.5159 26.9666 26.5025 29.1594L26.458 36.4688C26.45 37.7914 27.506 38.8769 28.8086 38.8848Z" fill="#8763E8"/>
<path d="M26.654 4.27278L26.6095 11.5821C26.5964 13.7402 29.195 14.835 30.6787 13.2429L37.476 5.97461C38.8907 4.45168 37.8433 1.93914 35.7866 1.92663L29.0338 1.88553C27.7312 1.8776 26.662 2.95013 26.654 4.27278Z" fill="#8763E8"/>
<path d="M43.054 18.8178L54.9922 6.08122C56.4069 4.55829 55.3596 2.04575 53.3029 2.03323L46.4815 1.99172C45.8302 1.98775 45.2115 2.26245 44.7629 2.74703L29.754 18.7369C28.8913 19.6714 28.8826 21.0985 29.7338 22.0435L44.547 38.2149C44.9897 38.7049 45.605 38.9871 46.2563 38.991L53.0777 39.0325C55.1344 39.0451 56.2465 36.5457 54.8162 35.0054L43.0338 22.1244C42.1826 21.1795 42.1913 19.7524 43.054 18.8178Z" fill="#8763E8"/>
</g>
<path d="M71.3265 27.9531V7.58942H75.6319V16.5681H75.9003L83.2285 7.58942H88.389L80.8321 16.7073L88.4785 27.9531H83.3279L77.7498 19.5809L75.6319 22.1661V27.9531H71.3265ZM91.5086 27.9531V12.6803H95.7444V27.9531H91.5086ZM93.6365 10.7116C93.0067 10.7116 92.4665 10.5028 92.0157 10.0852C91.5716 9.66092 91.3495 9.15381 91.3495 8.56385C91.3495 7.98052 91.5716 7.48004 92.0157 7.06243C92.4665 6.63819 93.0067 6.42607 93.6365 6.42607C94.2662 6.42607 94.8031 6.63819 95.2473 7.06243C95.698 7.48004 95.9234 7.98052 95.9234 8.56385C95.9234 9.15381 95.698 9.66092 95.2473 10.0852C94.8031 10.5028 94.2662 10.7116 93.6365 10.7116ZM111.845 17.0354L107.967 17.2741C107.901 16.9426 107.758 16.6443 107.54 16.3792C107.321 16.1074 107.032 15.892 106.674 15.7329C106.323 15.5672 105.902 15.4843 105.412 15.4843C104.755 15.4843 104.202 15.6235 103.751 15.9019C103.3 16.1737 103.075 16.5383 103.075 16.9957C103.075 17.3603 103.221 17.6685 103.513 17.9204C103.804 18.1723 104.305 18.3745 105.014 18.5269L107.778 19.0837C109.263 19.3887 110.37 19.8792 111.099 20.5553C111.828 21.2315 112.193 22.1197 112.193 23.2201C112.193 24.221 111.898 25.0994 111.308 25.855C110.725 26.6107 109.923 27.2007 108.902 27.6249C107.888 28.0425 106.718 28.2514 105.392 28.2514C103.37 28.2514 101.759 27.8304 100.559 26.9886C99.3662 26.1401 98.6669 24.9867 98.4614 23.5283L102.628 23.3096C102.754 23.9261 103.058 24.3967 103.542 24.7215C104.026 25.0397 104.646 25.1988 105.402 25.1988C106.144 25.1988 106.741 25.0563 107.192 24.7712C107.649 24.4796 107.881 24.105 107.888 23.6477C107.881 23.2632 107.719 22.9483 107.4 22.7031C107.082 22.4512 106.592 22.2589 105.929 22.1264L103.284 21.5994C101.792 21.3011 100.682 20.784 99.9529 20.0482C99.2303 19.3124 98.8691 18.3745 98.8691 17.2343C98.8691 16.2532 99.1342 15.4081 99.6645 14.6988C100.201 13.9895 100.954 13.4426 101.922 13.0582C102.896 12.6737 104.036 12.4815 105.342 12.4815C107.271 12.4815 108.789 12.8891 109.896 13.7045C111.01 14.5198 111.659 15.6301 111.845 17.0354ZM114.94 27.9531V7.58942H119.245V16.5681H119.514L126.842 7.58942H132.002L124.445 16.7073L132.092 27.9531H126.941L121.363 19.5809L119.245 22.1661V27.9531H114.94ZM138.52 28.2414C137.546 28.2414 136.677 28.0724 135.915 27.7343C135.153 27.3896 134.549 26.8825 134.105 26.213C133.668 25.5369 133.449 24.695 133.449 23.6874C133.449 22.8389 133.605 22.1264 133.916 21.5496C134.228 20.9729 134.652 20.5089 135.189 20.1576C135.726 19.8063 136.336 19.5411 137.019 19.3621C137.708 19.1832 138.431 19.0572 139.186 18.9843C140.074 18.8915 140.79 18.8053 141.334 18.7258C141.877 18.6396 142.272 18.5137 142.517 18.3479C142.762 18.1822 142.885 17.937 142.885 17.6121V17.5525C142.885 16.9228 142.686 16.4355 142.288 16.0908C141.897 15.7461 141.341 15.5738 140.618 15.5738C139.856 15.5738 139.249 15.7428 138.798 16.0809C138.348 16.4123 138.049 16.83 137.904 17.3337L133.986 17.0156C134.185 16.0875 134.576 15.2854 135.159 14.6093C135.743 13.9265 136.495 13.4029 137.416 13.0383C138.344 12.6671 139.418 12.4815 140.638 12.4815C141.486 12.4815 142.298 12.5809 143.074 12.7798C143.856 12.9786 144.549 13.2869 145.152 13.7045C145.762 14.1221 146.243 14.659 146.594 15.3153C146.945 15.9649 147.121 16.7438 147.121 17.6519V27.9531H143.104V25.8352H142.984C142.739 26.3124 142.411 26.7334 142 27.0979C141.589 27.4559 141.095 27.7376 140.519 27.9431C139.942 28.142 139.276 28.2414 138.52 28.2414ZM139.733 25.3181C140.356 25.3181 140.906 25.1955 141.384 24.9502C141.861 24.6983 142.235 24.3603 142.507 23.936C142.779 23.5118 142.915 23.0312 142.915 22.4942V20.8735C142.782 20.9597 142.6 21.0392 142.368 21.1121C142.143 21.1784 141.887 21.2414 141.602 21.3011C141.317 21.3541 141.032 21.4038 140.747 21.4502C140.462 21.49 140.204 21.5264 139.972 21.5596C139.475 21.6325 139.04 21.7485 138.669 21.9076C138.298 22.0667 138.01 22.2821 137.804 22.5539C137.599 22.8191 137.496 23.1505 137.496 23.5482C137.496 24.1249 137.705 24.5657 138.122 24.8707C138.547 25.169 139.083 25.3181 139.733 25.3181ZM163.114 17.0354L159.237 17.2741C159.17 16.9426 159.028 16.6443 158.809 16.3792C158.59 16.1074 158.302 15.892 157.944 15.7329C157.593 15.5672 157.172 15.4843 156.681 15.4843C156.025 15.4843 155.471 15.6235 155.021 15.9019C154.57 16.1737 154.345 16.5383 154.345 16.9957C154.345 17.3603 154.49 17.6685 154.782 17.9204C155.074 18.1723 155.574 18.3745 156.283 18.5269L159.048 19.0837C160.533 19.3887 161.64 19.8792 162.369 20.5553C163.098 21.2315 163.462 22.1197 163.462 23.2201C163.462 24.221 163.167 25.0994 162.578 25.855C161.994 26.6107 161.192 27.2007 160.171 27.6249C159.157 28.0425 157.987 28.2514 156.661 28.2514C154.64 28.2514 153.029 27.8304 151.829 26.9886C150.636 26.1401 149.936 24.9867 149.731 23.5283L153.897 23.3096C154.023 23.9261 154.328 24.3967 154.812 24.7215C155.296 25.0397 155.916 25.1988 156.671 25.1988C157.414 25.1988 158.01 25.0563 158.461 24.7712C158.918 24.4796 159.15 24.105 159.157 23.6477C159.15 23.2632 158.988 22.9483 158.67 22.7031C158.352 22.4512 157.861 22.2589 157.198 22.1264L154.553 21.5994C153.062 21.3011 151.952 20.784 151.222 20.0482C150.5 19.3124 150.139 18.3745 150.139 17.2343C150.139 16.2532 150.404 15.4081 150.934 14.6988C151.471 13.9895 152.223 13.4426 153.191 13.0582C154.166 12.6737 155.306 12.4815 156.612 12.4815C158.541 12.4815 160.059 12.8891 161.166 13.7045C162.279 14.5198 162.929 15.6301 163.114 17.0354Z" fill="#444444"/>
<defs>
<clipPath id="clip0_44_32">
<rect width="37" height="29" fill="white" transform="translate(26.4434 38.8704) rotate(-89.6513)"/>
</clipPath>
</defs>
</svg>
