<svg width="30" height="39" viewBox="0 0 30 39" fill="none" xmlns="http://www.w3.org/2000/svg">
<g clip-path="url(#clip0_44_34)">
<path d="M2.80863 37.8848L9.56146 37.9259C11.6182 37.9385 12.7303 35.4391 11.2999 33.8988L4.5916 26.5484C3.12738 24.9383 0.51587 25.9666 0.502524 28.1594L0.458037 35.4688C0.449987 36.7914 1.50605 37.8769 2.80863 37.8848Z" fill="#8763E8"/>
<path d="M0.65399 3.27278L0.609504 10.5821C0.59637 12.7402 3.19496 13.835 4.67867 12.2429L11.476 4.97461C12.8907 3.45168 11.8433 0.939144 9.78664 0.926627L3.03381 0.885527C1.73124 0.8776 0.66204 1.95013 0.65399 3.27278Z" fill="#8763E8"/>
<path d="M17.054 17.8178L28.9922 5.08122C30.4069 3.55829 29.3596 1.04575 27.3029 1.03323L20.4815 0.991717C19.8302 0.987754 19.2115 1.26245 18.7629 1.74703L3.75396 17.7369C2.89128 18.6714 2.8826 20.0985 3.73384 21.0435L18.547 37.2149C18.9897 37.7049 19.605 37.9871 20.2563 37.991L27.0777 38.0325C29.1344 38.0451 30.2465 35.5457 28.8162 34.0054L17.0338 21.1244C16.1826 20.1795 16.1913 18.7524 17.054 17.8178Z" fill="#8763E8"/>
</g>
<defs>
<clipPath id="clip0_44_34">
<rect width="37" height="29" fill="white" transform="translate(0.44342 37.8704) rotate(-89.6513)"/>
</clipPath>
</defs>
</svg>
