<svg width="20" height="20" viewBox="0 0 20 20" fill="none" xmlns="http://www.w3.org/2000/svg">
<path d="M5.61732 8.86954C6.01152 6.89854 7.78542 5.42029 9.85497 5.42029C11.3332 5.42029 12.5158 6.11014 13.3042 7.19419L14.9796 5.22319C13.797 3.84349 11.9245 2.95654 9.85497 2.95654C6.40572 2.95654 3.54777 5.51884 3.05502 8.86954H0.985474L4.43472 12.8115L7.88397 8.86954H5.61732ZM15.2752 6.89854L11.826 10.8405H14.0926C13.5999 12.8115 11.9245 14.2898 9.85497 14.2898C8.37672 14.2898 7.19412 13.5999 6.40572 12.5159L4.73037 14.3883C5.91297 15.8666 7.78542 16.7535 9.85497 16.7535C13.3042 16.7535 16.1622 14.1912 16.6549 10.8405H18.7245L15.2752 6.89854Z" fill="#8763E8"/>
</svg>
