<svg width="20" height="20" viewBox="0 0 20 20" fill="none" xmlns="http://www.w3.org/2000/svg">
<path fill-rule="evenodd" clip-rule="evenodd" d="M9.27848 1.80275C9.65019 1.66341 10.0598 1.66341 10.4315 1.80275L16.1803 3.95853C16.4934 4.07591 16.7633 4.28609 16.9538 4.56096C17.1442 4.83583 17.2463 5.1623 17.2462 5.49673V9.90109C17.2463 11.2737 16.8641 12.6193 16.1424 13.787C15.4208 14.9546 14.3883 15.8983 13.1605 16.5122L10.4061 17.8894C10.235 17.975 10.0463 18.0195 9.855 18.0195C9.6637 18.0195 9.47503 17.975 9.30394 17.8894L6.54946 16.5122C5.32173 15.8983 4.28919 14.9546 3.56756 13.787C2.84593 12.6193 2.46372 11.2737 2.46375 9.90109V5.49673C2.4637 5.1623 2.56575 4.83583 2.75624 4.56096C2.94672 4.28609 3.21658 4.07591 3.52973 3.95853L9.27848 1.80275ZM9.855 3.34095L4.10625 5.49673V9.90109C4.10643 10.9686 4.40386 12.015 4.9652 12.923C5.52655 13.831 6.32963 14.5648 7.28448 15.0421L9.855 16.329V3.34095Z" fill="#8763E8"/>
</svg>
