<svg width="122" height="18" viewBox="0 0 122 18" fill="none" xmlns="http://www.w3.org/2000/svg">
<path d="M8.92165 1.5625C9.29665 0.8125 10.3591 0.84375 10.7029 1.5625L12.7654 5.71875L17.3279 6.375C18.1404 6.5 18.4529 7.5 17.8591 8.09375L14.5779 11.3125L15.3591 15.8438C15.4841 16.6562 14.6091 17.2812 13.8904 16.9062L9.8279 14.75L5.73415 16.9062C5.0154 17.2812 4.1404 16.6562 4.2654 15.8438L5.04665 11.3125L1.7654 8.09375C1.17165 7.5 1.48415 6.5 2.29665 6.375L6.8904 5.71875L8.92165 1.5625Z" fill="#FAAD13"/>
<path d="M34.5096 1.5625C34.8846 0.8125 35.9471 0.84375 36.2909 1.5625L38.3534 5.71875L42.9159 6.375C43.7284 6.5 44.0409 7.5 43.4471 8.09375L40.1659 11.3125L40.9471 15.8438C41.0721 16.6562 40.1971 17.2812 39.4784 16.9062L35.4159 14.75L31.3221 16.9062C30.6034 17.2812 29.7284 16.6562 29.8534 15.8438L30.6346 11.3125L27.3534 8.09375C26.7596 7.5 27.0721 6.5 27.8846 6.375L32.4784 5.71875L34.5096 1.5625Z" fill="#FAAD13"/>
<path d="M60.0995 1.5625C60.4745 0.8125 61.537 0.84375 61.8808 1.5625L63.9433 5.71875L68.5058 6.375C69.3183 6.5 69.6308 7.5 69.037 8.09375L65.7558 11.3125L66.537 15.8438C66.662 16.6562 65.787 17.2812 65.0683 16.9062L61.0058 14.75L56.912 16.9062C56.1933 17.2812 55.3183 16.6562 55.4433 15.8438L56.2245 11.3125L52.9433 8.09375C52.3495 7.5 52.662 6.5 53.4745 6.375L58.0683 5.71875L60.0995 1.5625Z" fill="#FAAD13"/>
<path d="M85.6875 1.5625C86.0625 0.8125 87.125 0.84375 87.4687 1.5625L89.5312 5.71875L94.0937 6.375C94.9062 6.5 95.2187 7.5 94.625 8.09375L91.3437 11.3125L92.125 15.8438C92.25 16.6562 91.375 17.2812 90.6562 16.9062L86.5937 14.75L82.5 16.9062C81.7812 17.2812 80.9062 16.6562 81.0312 15.8438L81.8125 11.3125L78.5312 8.09375C77.9375 7.5 78.25 6.5 79.0625 6.375L83.6562 5.71875L85.6875 1.5625Z" fill="#FAAD13"/>
<path d="M111.277 1.5625C111.652 0.8125 112.715 0.84375 113.059 1.5625L115.121 5.71875L119.684 6.375C120.496 6.5 120.809 7.5 120.215 8.09375L116.934 11.3125L117.715 15.8438C117.84 16.6562 116.965 17.2812 116.246 16.9062L112.184 14.75L108.09 16.9062C107.371 17.2812 106.496 16.6562 106.621 15.8438L107.402 11.3125L104.121 8.09375C103.527 7.5 103.84 6.5 104.652 6.375L109.246 5.71875L111.277 1.5625Z" fill="#FAAD13"/>
</svg>
